<?xml version="1.0" encoding="UTF-8"?>
<svg aria-label="Lotexpo" role="img" viewBox="0 0 1616 420" xmlns="http://www.w3.org/2000/svg"><title>Lotexpo</title><g transform="translate(-159 523) scale(.05 -.05)"><path d="m3180 7762c0-3017-5-2892 132-3178 138-286 424-511 758-595 94-23 219-35 380-35 269-1 403 28 647 138 117 54 144 74 135 102-6 20-44 180-83 356-39 175-74 321-76 324-3 3-68-17-146-44-309-108-570-82-737 72-161 148-150-64-150 2922v2656h-430-430v-2718zm8780 1158v-720h-440-440v-370-370h439 439l7-1165c7-1144 8-1168 53-1335 162-595 571-934 1211-1004 244-26 499-3 723 66 176 54 508 218 508 250 0 19-235 681-250 703-2 3-65-27-142-65-298-152-640-189-858-92-128 56-257 182-308 301-73 169-82 320-82 1346v995h710 710v370 370h-710-710v720 720h-430-430v-720zm4895-651c-210-40-508-149-690-253-332-190-629-509-805-866-193-391-269-820-224-1266 63-636 348-1163 821-1519 389-293 917-450 1402-417 657 46 1185 300 1531 737 124 156 310 480 310 538 0 19-111 51-373 105l-374 78-31-42c-18-23-54-79-82-125-27-46-104-137-169-203-144-143-374-263-591-308-211-44-564-30-740 30-328 113-628 406-762 747-35 89-98 344-98 396 0 12 648 19 1670 19h1670v215c0 375-84 735-245 1055-201 399-552 740-958 929-71 34-219 85-329 114-159 42-255 53-488 58-196 5-340-2-445-22zm713-769c334-85 585-287 731-586 43-90 93-211 109-269l30-105h-1218-1218l31 105c45 152 154 350 258 469 162 186 481 362 732 404 185 30 382 24 545-18zm10022 769c-379-69-717-234-978-477-55-51-102-92-105-92-4 0-7 113-7 250v251l-425-6-425-5-10-6130h430 430v1253 1252l95-88c241-225 513-377 813-455 244-64 552-88 788-62 262 28 453 82 675 190 210 101 498 317 631 473 198 232 313 433 416 725 86 243 122 471 122 772 0 300-36 528-121 772-241 689-749 1168-1435 1352-204 54-665 67-894 25zm700-797c402-127 697-422 843-842 52-150 56-181 56-490 1-291-5-348-46-480-117-374-341-650-648-799-241-116-395-147-685-136-155 6-276 21-340 44-566 196-904 637-958 1251-39 426 139 886 451 1168 181 164 470 303 707 339 33 6 150 7 260 3 143-5 246-22 360-58zm-20530 779c-741-122-1345-563-1640-1196-42-91-102-264-133-385-51-198-56-253-56-550 1-365 32-542 149-833 332-828 1201-1364 2140-1320 596 28 1085 228 1483 609 270 257 465 590 571 974 52 185 56 227 55 570 0 312-7 396-43 540-201 793-807 1375-1626 1563-227 52-672 66-900 28zm790-779c226-72 390-176 567-362 260-272 383-586 383-978 0-410-133-747-400-1012-168-167-345-280-540-343-183-59-563-74-741-28-469 119-824 448-976 902-56 165-86 483-63 662 82 640 537 1112 1170 1214 141 23 442-5 600-55zm24310 768c-446-79-842-275-1166-578-122-113-241-268-350-452-275-467-352-1104-204-1680 59-228 232-570 386-760 301-374 735-638 1243-756 258-60 763-60 1022 0 437 102 760 279 1070 586 323 321 490 627 580 1063 56 272 56 668 2 927-102 482-357 902-726 1198-503 402-1189 569-1857 452zm820-761c377-124 646-355 824-706 178-354 185-884 17-1266-106-239-361-510-598-634-205-108-395-153-643-153-388 0-678 119-952 390-278 275-386 530-402 950-12 314 20 478 144 733 186 382 545 647 985 728 153 28 478 6 625-42zm-10673 226c-231-305-426-567-435-581-10-17 78-150 251-384 147-197 273-359 280-359 7-1 295 366 639 814s670 871 724 940l98 125h-569-568l-420-555zm-174-2226-277-361 52-74c28-41 225-303 438-584l386-510 554-5c380-4 554 1 554 16 0 17-1329 1767-1408 1854-17 18-88-61-299-336z" fill="currentColor"/><path d="m20174 8232c9-16 369-495 800-1065s784-1046 784-1057-356-492-791-1070c-436-577-796-1061-802-1075-8-20 103-25 537-20l547 5 816 1060c449 583 821 1070 827 1083s-361 505-815 1095l-825 1072h-547c-465 0-545-4-531-28z" fill="var(--logo-accent,#6b51ff)"/></g></svg>
